<?xml version="1.0" encoding="UTF-8"?>
<svg xmlns="http://www.w3.org/2000/svg" width="1024" height="1024" viewBox="0 0 1024 1024">
  <!-- 노란 배경 -->
  <rect width="1024" height="1024" rx="230" fill="#FFBE50"/>
  <!-- 계산기 아이콘 (중앙 600×600) -->
  <svg x="212" y="212" width="600" height="600" viewBox="0 0 20 20">
    <rect x="2" y="1.5" width="16" height="17" rx="2.5"
          fill="none" stroke="#111111" stroke-width="1.7"
          stroke-linecap="round" stroke-linejoin="round"/>
    <rect x="3.8" y="3.8" width="12.4" height="3.8" rx="1"
          fill="none" stroke="#111111" stroke-width="1.5"
          stroke-linecap="round" stroke-linejoin="round"/>
    <rect x="3.8"  y="9"    width="3.6" height="2.2" rx="0.6" fill="#111111"/>
    <rect x="8.2"  y="9"    width="3.6" height="2.2" rx="0.6" fill="#111111"/>
    <rect x="12.6" y="9"    width="3.6" height="2.2" rx="0.6" fill="#111111"/>
    <rect x="3.8"  y="11.9" width="3.6" height="2.2" rx="0.6" fill="#111111"/>
    <rect x="8.2"  y="11.9" width="3.6" height="2.2" rx="0.6" fill="#111111"/>
    <rect x="12.6" y="11.9" width="3.6" height="2.2" rx="0.6" fill="#111111"/>
    <rect x="3.8"  y="14.8" width="3.6" height="2.2" rx="0.6" fill="#111111"/>
    <rect x="8.2"  y="14.8" width="3.6" height="2.2" rx="0.6" fill="#111111"/>
    <rect x="12.6" y="14.8" width="3.6" height="2.2" rx="0.6" fill="#111111"/>
  </svg>
</svg>
